<svg viewBox="0 0 25.4 25.4" version="1.1" id="icon-campfire"
  xmlns="http://www.w3.org/2000/svg"
  xmlns:svg="http://www.w3.org/2000/svg">
  <path style="stroke:#000000;stroke-width:0.264583;stroke-opacity:1" d="M 13.509985,3.0754439 12.828994,3.0534755 12.323743,3.2511825 11.906361,3.470857 11.335207,3.9541412 10.786021,4.48136 10.456509,5.0964488 9.9512574,6.0190821 9.7315828,7.0076176 9.8179478,8.2524974 C 9.8010807,8.239447 9.6217454,7.9302506 9.5338756,7.7545109 L 9.0945265,7.2492594 8.2597632,6.8318779 C 7.9815088,6.560946 7.745722,6.2861533 7.4249999,6.0190821 7.3074896,5.917619 7.223687,5.8467547 7.0515532,5.77744 c -0.044541,0.069329 -0.09647,0.106334 -0.120436,0.2656765 0.00972,0.2809382 0.1535155,0.4672609 0.2302733,0.7008914 0,0 0.021968,0.3075445 0.197707,0.5052515 0.1757396,0.1977072 0.1757396,0.3075445 0.3295118,0.4832842 0.1537724,0.1757394 0.1537724,0.2855767 0.2855769,0.5052515 0.1318049,0.2196745 0.1537724,0.6370561 0.1537724,0.6370561 0,0 -0.08787,0.5052515 -0.1318048,0.5931212 -0.043935,0.08787 -0.1537721,0.2416421 -0.285577,0.4613166 -0.1318048,0.219675 -0.4613166,0.680991 -0.4613166,0.680991 0,0 -0.1757394,0.593121 -0.2196746,0.680991 -0.043935,0.08787 -0.2416418,0.637056 -0.2416418,0.790829 0,0.153772 0.08787,0.878698 0.08787,0.878698 l 0.1098373,0.922633 c 0.00217,0.142876 0.2252023,0.299396 0.2855769,0.417382 0.067128,0.131184 0.2196746,0.593121 0.5272188,0.85673 0.3075446,0.26361 0.4613167,0.395415 0.6809912,0.505252 0.2196746,0.109837 0.6370564,0.219675 0.6370564,0.219675 l 0.4832839,0.08787 c 0,0 0.6590237,0.04394 1.1423077,0.131805 0.483284,0.08787 1.010503,0.109837 1.010503,0.109837 l 0.307544,0.02197 -0.219674,-0.307545 c 0,0 -0.17574,-0.329511 -0.26361,-0.395414 -0.08787,-0.0659 -0.483284,-0.461316 -0.483284,-0.461316 l -0.439349,-0.329512 c 0,0 -0.329512,-0.307545 -0.285577,-0.395414 0.04393,-0.08787 0.130959,-0.335274 0.153772,-0.461317 0.06978,-0.385554 0.03153,-0.818023 0.03153,-0.818023 0.0142,0.01121 0.05205,0.373276 0.08904,0.50029 l 0.362714,0.207896 0.593007,-0.322964 c 0,0 0.07767,-0.05715 0.285691,-0.533767 0.253008,-0.579687 0.241642,-1.603624 0.241642,-1.603624 l 0.109838,-0.131805 0.549186,0.615089 c 0,0 0.116511,0.722806 0.241642,0.900665 0.138239,0.19649 0.361245,0.457434 0.549853,0.547969 0.17621,0.0386 0.435937,0.06987 0.435937,0.06987 0.133847,-0.325004 0.02906,-0.71136 0.04944,-0.746893 0.0023,0.0068 0.09803,0.198961 0.153771,0.321274 0.08844,0.194058 0.126314,0.378939 0.104346,0.510743 -0.02197,0.131805 0.02471,0.730418 0,0.782591 -0.07162,0.151193 -0.480538,0.689229 -0.480538,0.689229 0,0 -0.483284,0.527218 -0.593121,0.702958 -0.109838,0.17574 -0.483284,0.659024 -0.483284,0.659024 0,0 0.417381,0.131805 0.527218,0.08787 0.109838,-0.04393 0.659024,-0.373447 0.746894,-0.439349 0.08787,-0.0659 0.483284,-0.219675 0.571154,-0.285577 0.08787,-0.0659 0.571154,-0.439349 0.702958,-0.483284 0.131805,-0.04393 0.439349,-0.219675 0.527219,-0.307545 0.08787,-0.08787 0.856731,-0.549186 0.856731,-0.549186 l 0.724926,-0.702959 0.439349,-0.856731 0.08787,-0.659023 c -0.02929,-0.298155 -0.04423,-0.855031 -0.08787,-0.894465 -0.04171,-0.05877 -0.343549,-0.423967 -0.351479,-0.489485 0,0 -0.08024,-0.362129 0,-0.637056 0.04584,-0.1570496 0.05158,-0.9049883 0.009,-1.0795652 -0.05464,-0.1405825 -0.09991,-0.234279 -0.14978,-0.3509867 0,0 -0.07889,-0.3707815 -0.01298,-0.4806188 0.0659,-0.1098372 -0.153772,-0.7029585 -0.153772,-0.7029585 l -0.43935,0.1537722 -0.417382,0.3954142 -0.417382,0.3954142 -0.130508,0.726485 -0.130389,0.8604411 c 0.03222,-0.020418 0.04426,-0.1625088 0.08676,-0.4508197 0.02773,-0.1880869 0.08628,-0.9164318 0.02037,-1.0043018 -0.0659,-0.08787 -0.373447,-0.6590236 -0.373447,-0.6590236 L 14.828034,7.3371304 14.212945,6.7000741 13.641791,6.0410505 13.334247,5.8872783 13.422116,4.9866126 13.466051,4.1738168 13.334247,3.5367605 Z" />
  <path style="stroke:#000000;stroke-width:0.264583;stroke-opacity:1" d="m 11.073311,17.364167 c 0,0 1.701337,-0.356638 1.724723,-0.40341 0.02339,-0.04677 -1.034834,-0.239708 -1.034834,-0.239708 l -0.549572,-0.11693 -0.362484,-0.11693 -0.514494,-0.152008 -0.6431175,-0.05847 H 9.0036421 l -0.2806329,-0.128623 -0.222168,-0.05847 c 0,0 -0.3390982,-0.03508 -0.4443354,-0.04677 -0.1052375,-0.01169 -1.0172946,-0.03508 -1.0172946,-0.03508 l -0.3975635,-0.01169 -0.2104747,0.07016 -0.3029857,0.08288 c -0.099912,0.102368 -0.1309674,0.197768 -0.17268,0.263063 -0.027936,0.02907 -0.067155,0.08445 -0.1674517,0.22701 -0.084165,0.119636 -0.1052375,0.05847 -0.1052375,0.187089 0,0.128623 0.011695,0.257247 0.011695,0.339098 0,0.08185 0.011692,0.222168 0.023386,0.304019 0.011692,0.08185 0.011692,0.327405 0.058465,0.397564 0.046772,0.07016 0.011692,0.07016 0.1169305,0.152009 0.1052372,0.08185 0.070158,0.08185 0.2455537,0.128624 0.1753957,0.04677 0.1520094,0.105237 0.3975634,0.140316 0.245554,0.03508 0.5963452,0.01169 0.6898894,0.01169 0.093545,0 0.222168,0 0.5144939,0.01169 0.292326,0.01169 0.6781964,-0.04677 0.8302059,-0.07016 0.1520097,-0.02339 0.4794147,-0.105238 0.6548104,-0.163703 0.1753957,-0.05847 0.5028009,-0.233861 0.7717409,-0.304019 0.2689408,-0.07016 0.8418988,-0.187088 0.9471368,-0.222167 0.105237,-0.03508 0.128623,-0.187089 0.128623,-0.187089 z" />
  <path style="stroke:#000000;stroke-width:0.264583;stroke-opacity:1" d="m 12.558327,19.503994 c -0.0018,0.150888 0.577417,0.251754 0.577417,0.251754 0,0 0.31554,0.115226 0.3973,0.146457 0.112633,0.04302 0.627229,0.104588 0.837704,0.127975 0.210475,0.02339 0.105238,0 0.362485,0.04677 0.257246,0.04677 0.362484,0.09355 0.608038,0.163703 0.245554,0.07016 0.245554,0.07016 0.584652,0.175396 0.339098,0.105237 0.596345,0.187088 0.724968,0.210474 0.128624,0.02339 0.26894,0.04677 0.572959,0.105238 0.304019,0.05846 0.371972,0.07925 0.432704,0.101103 0.122994,0.04426 0.392447,0.200493 0.440384,0.226241 0.132395,0.07111 0.331722,0.114864 0.54177,0.09361 0.437425,-0.0254 0.409257,-0.02339 0.724969,-0.175395 0.315712,-0.15201 0.280633,-0.128624 0.432642,-0.339098 0.15201,-0.210475 0.210475,-0.362485 0.30402,-0.491108 0.09354,-0.128624 0.152009,-0.304019 0.152009,-0.432643 0,-0.128623 -0.09354,-0.339098 -0.09354,-0.339098 l -0.409257,-0.11693 -0.575882,-0.05262 -0.317174,0.01608 c 0.04474,0.03834 0.318635,0.002 0.477953,0.003 0.127871,-0.01831 0.129399,-0.01905 0.328794,-0.0477 0.157268,-0.01802 0.265602,-0.04243 0.402021,-0.059 0,0 0.105238,-0.03508 0.09354,-0.198781 -0.01169,-0.163703 -0.08185,-0.315713 -0.140317,-0.42095 -0.05847,-0.105237 -0.187088,-0.163703 -0.304019,-0.187089 -0.11693,-0.02339 -0.327405,-0.105237 -0.502801,-0.11693 -0.175395,-0.01169 -0.666503,-0.03508 -0.666503,-0.03508 l -0.187089,-0.140316 -0.362484,-0.116931 -0.678196,-0.09354 h -0.53788 c 0,0 -2.256757,0.397563 -2.385381,0.456028 -0.128623,0.05846 -1.835807,1.239463 -1.835807,1.239463 z" />
  <path style="stroke:#000000;stroke-width:0.264583;stroke-opacity:1" d="m 11.195611,17.23445 c -0.07494,0.02649 -0.496478,0.281726 -0.54325,0.293419 -0.04677,0.01169 -0.561266,0.116931 -0.631424,0.140317 -0.070158,0.02339 -0.6665037,0.15201 -0.7249689,0.187089 -0.058465,0.03508 -0.5963452,0.198781 -0.6781964,0.210474 -0.081851,0.01169 -0.8302059,0.04677 -0.9354434,0.04677 -0.1052372,0 -0.4326424,-0.03508 -0.5963451,-0.02339 -0.1637025,0.01169 -0.4794147,0.01169 -0.526187,0.02339 -0.046772,0.01169 -0.4209494,0.163703 -0.4209494,0.163703 0,0 -0.1870887,0 -0.2338607,0.03508 -0.046772,0.03508 -0.3975634,0.491108 -0.3975634,0.491108 0,0 -0.058465,0.175396 -0.093545,0.222168 -0.035079,0.04677 -0.1169303,0.292326 -0.1169303,0.292326 0,0 -0.011692,0.350791 -0.023386,0.409256 -0.011692,0.05846 -0.011692,0.140317 -0.011692,0.339098 0,0.198782 -0.046772,0.30402 0,0.350792 0.046772,0.04677 0.1753957,0.163702 0.2221677,0.233861 0.046772,0.07016 0.245554,0.210474 0.245554,0.210474 0,0 0.1169305,0.07016 0.1870887,0.140317 0.070158,0.07016 0.1753957,0.210475 0.1753957,0.210475 0,0 0.093544,0.210474 0.1520095,0.23386 0.058465,0.02339 0.3975634,0.105238 0.3975634,0.105238 L 7.050905,21.445038 7.6706361,21.246257 c 0,0 0.3157122,-0.140317 0.4443357,-0.175396 0.1286232,-0.03508 0.3507912,-0.08185 0.6197312,-0.187089 0.2689399,-0.105237 0.3040189,-0.140316 0.5612659,-0.198781 0.2572469,-0.05847 0.5729591,-0.339099 0.5729591,-0.339099 0.010367,-0.01871 -0.034411,0.07292 -0.051616,0.109372 0,0 -0.087282,0.163702 -0.1038188,0.220101 -0.016451,0.05611 -0.040631,0.152536 -0.040631,0.211001 0,0.05847 -0.026101,0.126031 0.05575,0.207881 0.081851,0.08185 0.2572467,0.222168 0.4209498,0.233861 0.163703,0.01169 0.175396,0.03508 0.350791,0 0.175396,-0.03508 0.315713,-0.07016 0.409257,-0.128623 0.09354,-0.05847 0.315712,-0.175396 0.315712,-0.175396 0,0 0.04677,-0.11693 0.08185,-0.292326 0.03508,-0.175396 0.02274,-0.109452 0.08534,-0.273337 0.05846,-0.05847 0.112735,-0.144776 0.159507,-0.204011 0.02988,-0.03784 0.07841,-0.102665 0.158981,-0.190575 0.09766,-0.106548 0.175924,-0.244804 0.198029,-0.278254 0.0049,-0.04549 0.125351,-0.111082 0.357684,-0.139542 0.233281,-0.0286 0.339159,-0.06995 0.511718,-0.137277 0.233885,-0.09126 0.481481,-0.414038 0.633491,-0.437425 0.152009,-0.02339 0.724968,-0.210474 0.970522,-0.257246 0.245554,-0.04677 0.42095,-0.198782 0.795127,-0.292327 0.374177,-0.09354 0.80682,-0.245553 0.865285,-0.257247 0.05847,-0.01169 0.724969,-0.315712 0.77174,-0.315712 0.04677,0 0.420949,-0.11693 0.584652,-0.128623 0.163703,-0.01169 0.724969,-0.163703 0.92375,-0.222168 0.198782,-0.05846 0.467722,-0.09354 0.572959,-0.128623 0.105238,-0.03508 0.198782,-0.07016 0.257247,-0.116931 0.05846,-0.04677 0.187089,-0.292326 0.187089,-0.350791 0,-0.05846 0.05846,-0.222168 0.04677,-0.456029 -0.01169,-0.233861 -0.07016,-0.65481 -0.07016,-0.65481 l -0.257243,-0.3274 -0.105237,-0.233861 c 0,0 -0.339099,-0.02339 -0.409257,-0.02339 -0.07016,0 -0.701582,0.222168 -0.701582,0.222168 l -0.339099,0.175395 -0.315712,0.233861 c -0.144214,0.105237 -0.40235,0.311409 -0.432642,0.315712 l 0.11693,-0.140317 0.42095,-0.268939 0.152009,-0.187089 c 0,0 0.116931,-0.327405 0.105238,-0.38587 -0.01169,-0.05847 -0.175396,-0.385871 -0.175396,-0.385871 l -0.42095,-0.327405 c 0,0 -0.444335,0 -0.479414,0.05846 -0.03508,0.05846 -0.187089,0.187089 -0.233861,0.350791 -0.04677,0.163703 -0.198782,0.432643 -0.222168,0.491108 -0.02339,0.05847 -0.128623,0.26894 -0.198782,0.327406 -0.07016,0.05846 0.01169,0.04677 -0.280633,0.163702 -0.292326,0.116931 -0.456028,0.163702 -0.748354,0.257247 -0.292326,0.09354 -0.42095,0.09354 -0.584652,0.152009 -0.163703,0.05847 -0.526187,0.245554 -0.584653,0.292326 -0.05846,0.04677 -0.07016,0.03508 -0.198781,0.116931 -0.128623,0.08185 -0.549573,0.245554 -0.643117,0.280633 -0.09354,0.03508 -1.07576,0.07016 -1.07576,0.07016 l -0.240651,0.02997 z" />
</svg>
