<svg viewBox="0 0 25.4 25.4" version="1.1" id="icon-cave"
  xmlns="http://www.w3.org/2000/svg"
  xmlns:svg="http://www.w3.org/2000/svg">
  <path style="stroke:#000000;stroke-width:0.264583;stroke-linecap:round;stroke-linejoin:round;" d="m 2.9964229,20.924049 v -1.143123 l 0.961381,-4.123738 c 0.52876,-2.268056 0.978965,-4.199859 1.000456,-4.292894 l 0.03907,-0.169155 1.119775,0.625476 c 0.615876,0.344011 1.133338,0.620954 1.149916,0.615428 0.01658,-0.0055 0.997887,-1.988772 2.180686,-4.4072152 1.1827991,-2.4184422 2.1246791,-4.257425 2.1904481,-4.4015097 0.103019,0.1401404 2.216265,2.9411585 2.451641,3.247588 0.245405,0.3194868 2.48876,3.2627869 2.502054,3.2710029 0.0133,0.0082 0.654419,-0.3283368 1.424722,-0.7478963 0.770302,-0.4195586 1.414951,-0.7655672 1.432554,-0.7689073 0.01918,-0.00364 0.06287,0.5288383 0.109048,1.3289348 l 0.07704,1.3350068 0.971454,4.41968 0.971454,4.41968 0.0231,0.967382 0.0231,0.967383 H 12.310373 2.9964209 Z m 14.6470961,-0.09963 c -0.0077,-0.03297 -0.209019,-0.733163 -0.479558,-1.615666 l -0.491888,-1.604559 -2.17972,-1.993576 c -1.198845,-1.096466 -2.196966,-1.993575 -2.218045,-1.993575 -0.02108,0 -1.012414,0.844899 -2.202968,1.877554 l -2.1646421,1.877555 -0.407127,1.68381 c -0.22392,0.926095 -0.4120311,1.702564 -0.425947,1.75578 l -0.01882,0.07197 c 0.089468,-0.0014 3.5254611,-0.01606 5.2881921,-0.02409 2.908506,-0.01325 5.256534,-0.03529 5.300523,-0.03521 z"  />
</svg>
