<svg viewBox="0 0 25.4 25.4" version="1.1" id="icon-ore-deposit"
  xmlns="http://www.w3.org/2000/svg"
  xmlns:svg="http://www.w3.org/2000/svg">
  <path style="stroke:#000000;stroke-width:0.185208;" d="m 5.1646338,10.949126 -0.4186703,0.05589 -0.4134115,0.02481 -0.6449218,0.256315 -0.1736328,0.454752 0.099219,0.388607 c 0,0 0.6366536,0.719336 0.6945312,0.79375 0.057878,0.07441 2.0091797,2.10013 2.0091797,2.10013 0,0 0.4216797,0.355534 0.5126302,0.405143 0.09095,0.04961 0.6201172,0.157097 0.6201172,0.157097 L 7.4992838,14.552083 7.2016275,13.733528 6.7468749,13.12168 6.1267577,12.286588 5.5314452,11.451497 Z" />
  <path style="stroke:#000000;stroke-width:0.185208;" d="m 5.341276,10.55026 c -0.019293,0.179145 -0.056125,0.0062 -0.075418,0.440967 0,0 0.4640239,0.88195 0.5053651,0.923291 0.041341,0.04134 1.4138672,1.81901 1.4138672,1.81901 l 0.4960937,0.93431 c 0,0 0.4878255,-0.529166 0.5457031,-0.553971 0.057878,-0.02481 0.3720703,-1.033529 0.3720703,-1.033529 L 8.3261067,12.286588 8.0201822,11.724349 7.5323567,10.97194 c 0,0 -0.4051432,-0.570508 -0.4299479,-0.611849 C 7.0776041,10.31875 6.7386067,9.7399738 6.7386067,9.7399738 L 6.5401692,9.566341 5.9861978,10.03763 Z" />
  <path style="stroke:#000000;stroke-width:0.185208;" d="m 7.689453,8.4666666 c 0.1984375,0 0.4547526,0.082682 0.4547526,0.082682 0,0 0.1322917,0.4134114 0.2397787,0.6779947 0.1074869,0.2645834 0.6779948,1.7528647 0.6779948,1.7528647 l 0.2811197,0.529167 -0.074414,0.661458 -0.2315104,0.669727 -0.3307292,-0.372071 c 0,0 -0.1488281,0.01654 -0.2397786,-0.08268 C 8.375716,12.286588 7.6977213,11.120768 7.6977213,11.120768 L 7.2843098,10.492383 6.8047525,9.6490233 7.1189452,9.2521483 Z" />
  <path style="stroke:#000000;stroke-width:0.185208;" d="M 3.7885454,5.8231349 C 3.6248424,5.7529765 3.4745244,5.6628255 3.2974377,5.6126599 3.2423162,5.6514222 3.1230165,6.2372633 3.0401908,6.5714895 l 0.070158,1.7773422 0.023386,1.8241143 0.061389,1.071375 c 0.1145567,0.06356 0.2793998,0.140143 0.4063333,0.144703 0,0 0.7717406,-0.374178 0.9120571,-0.397564 0.1403164,-0.02339 0.5218018,-0.305481 0.5218018,-0.305481 0,0 -0.05408,-0.7235065 -0.1476244,-0.7936648 C 4.7941478,9.822155 4.5369008,9.1205726 4.5369008,9.1205726 L 4.3030401,8.3254457 3.9756349,7.4367744 4.5369008,7.5770911 5.0280088,7.9278823 5.7062052,8.6528509 6.3376293,9.4012056 6.9456675,9.4713638 7.2496867,9.1673446 7.6706361,8.5826927 7.6940226,8.2085153 7.3900037,7.8343378 6.922282,7.6004771 Z" />
  <path style="stroke:#000000;stroke-width:0.185208;" d="m 4.0762369,7.507552 0.3720703,1.3311849 0.4464844,1.0583333 c 0,0 0.057878,0.7937498 0.1322917,0.8268228 0.074414,0.03307 0.2232422,0.132292 0.2480468,0.08268 0.024805,-0.04961 0.8020183,-0.504362 0.8764323,-0.578776 0.074414,-0.07441 0.3886068,-0.6531897 0.3886068,-0.6531897 L 5.7712239,8.698177 5.0436197,7.8961588 c 0,0 -0.4134114,-0.2893881 -0.4464843,-0.2893881 -0.033073,0 -0.5208985,-0.099219 -0.5208985,-0.099219 z" />

  <path style="stroke:#000000;stroke-width:0.185208;" d="m 19.515687,7.3549231 -0.80682,0.1169305 -0.992512,0.3034316 -0.773138,0.2640964 -0.704419,0.2831051 c -0.108743,0.090038 -0.258843,0.1969535 -0.328297,0.2546122 0.05486,0.099454 0.149817,0.3065122 0.262395,0.5030496 0,0 0.109077,0.2068422 0.214315,0.2886934 0.105237,0.081851 0.261313,0.2892259 0.278292,0.28191 0.03762,-0.016209 0.367479,-0.05989 0.367479,-0.05989 l 0.459808,-0.4352111 0.80682,-0.667965 c -0.0071,0.022419 -0.506698,0.4764915 -0.760047,0.7147373 L 17.209234,9.6087562 17.087356,9.83118 17.017922,9.9549726 17.6565,10.208025 c 0,0 0.466719,0.153872 0.523796,0.166539 0.05123,0.01137 0.469525,0.136687 0.469525,0.136687 l 0.217587,-0.179976 0.02785,-0.951088 c 0.01538,0.027763 0.0223,0.5787648 0.054,0.903546 l 0.05769,0.304667 0.263185,0.180888 0.72276,0.213108 c 0,0 0.123664,-0.251 0.154218,-0.318346 0.02339,-0.05156 0.141943,-0.318524 0.136891,-0.353893 -0.0049,-0.03447 -0.198782,-0.8068196 -0.198782,-0.8068196 L 19.901557,8.2085153 19.564039,7.4411719 Z" />
  <path style="stroke:#000000;stroke-width:0.185208;" d="m 15.844071,8.8516327 0.397564,0.3858701 c 0,0 0.339098,0.4443357 0.362484,0.491108 0.02339,0.046772 0.09354,0.2338607 0.09354,0.2338607 l -0.280632,0.5261865 -0.654811,1.216077 -0.38587,0.830206 -0.163703,0.315712 -0.315712,-0.09354 -0.491108,-0.397564 c 0,0 -0.05846,-0.68989 -0.04677,-0.736662 0.01169,-0.04677 0.181243,-0.625577 0.181243,-0.625577 0,0 0.39569,-0.750133 0.473567,-0.906211 0.07183,-0.1439602 0.42972,-0.8214364 0.42972,-0.8214364 z" />
  <path style="stroke:#000000;stroke-width:0.185208;" d="m 16.564704,9.9066198 0.478198,0.1268632 c 0,0 0.508354,0.197926 0.555126,0.244703 0.04677,0.04677 0.60563,0.189964 0.652981,0.224529 0.06734,0.04916 0.332157,0.120415 0.332157,0.120415 l -0.622654,0.894518 -0.467722,0.643117 c 0,0 -0.701582,0.923751 -0.748354,0.982216 -0.04677,0.05846 -0.327405,0.409256 -0.327405,0.409256 l -0.993909,0.05846 c 0,0 -0.198782,0 -0.198782,-0.04677 v -0.77174 l 0.631424,-1.134226 c 0,0 0.406186,-0.757855 0.438783,-0.839183 0.03478,-0.08678 0.133731,-0.632073 0.133731,-0.632073 z" />
  <path style="stroke:#000000;stroke-width:0.185208;" d="m 18.614349,10.672282 0.462788,0.05543 0.596406,0.234521 0.239707,0.210475 0.03508,0.286479 -0.543726,0.514494 c 0,0 -0.625578,0.608038 -0.637271,0.643117 -0.01169,0.03508 -0.92375,0.993909 -0.92375,0.993909 l -0.426796,0.321559 -0.625578,-0.05847 -0.03508,-0.53788 0.315712,-0.526186 c 0,0 0.461875,-0.619732 0.543726,-0.684043 0.08185,-0.06431 0.414008,-0.584946 0.49586,-0.643411 0.08185,-0.05846 0.432642,-0.567113 0.432642,-0.567113 z" />

  <path style="stroke:#000000;stroke-width:0.264583" d="m 13.259909,10.14956 -1.081607,0.187088 -1.905965,0.719122 c -0.13235,0.121706 -0.9705228,0.783434 -1.4557839,1.175151 L 8.1851287,12.581712 7.6004768,12.774648 7.4192347,13.20729 7.0859829,13.967338 6.614162,14.627459 6.2109043,15.115605 5.9289963,15.890007 5.4788349,16.393832 C 5.221588,16.534149 5.0567015,16.89341 4.9357238,17.006536 4.81465,17.161428 4.6599447,17.555573 4.4962421,17.859592 4.3325372,18.101247 4.0815321,18.315596 3.9756336,18.591935 L 3.8353171,19.34029 c 0.044128,0.207933 0.171498,0.311815 0.257247,0.467722 0.1012844,0.136244 0.2199315,0.20231 0.3274052,0.304019 l 0.023386,0.841899 c 0.011227,0.01287 0.2015028,0.155057 0.3040192,0.23386 0.2939038,0.124402 0.5300844,0.04677 0.7951266,0.07016 l 1.1926903,0.11693 0.4677217,-0.280633 0.3274052,-0.608038 c 0,0 0.4911077,-0.514494 0.6314242,-0.631424 0.1403164,-0.116931 0.5554194,-0.438489 0.5554194,-0.438489 -0.012555,0.03868 -0.1858169,0.208076 -0.2787253,0.312114 l -0.4099867,0.450203 -0.2728516,0.301791 -0.095085,0.367936 0.144694,0.239778 0.8350911,0.11989 1.9347656,-0.111621 5.374349,0.0041 0.272851,-0.446484 0.231511,-0.65319 -0.04961,-0.603581 -1.124478,-0.992188 -0.463021,-0.529166 0.0248,-0.843359 0.314193,0.570507 0.446484,0.636654 0.901237,0.669726 0.587044,0.454753 -0.04961,1.339453 0.248047,0.322461 1.984375,0.04134 1.455208,-0.157096 0.636653,-0.471289 c 0,0 0.256315,-0.578776 0.272852,-0.611849 0.01654,-0.03307 -0.05788,-2.025716 -0.05788,-2.025716 l -0.959114,-1.471745 -0.967383,-1.513086 -0.843359,-0.463021 -1.316482,-0.570264 -0.930126,0.06331 -1.032869,-0.465199 -0.586042,-0.697369 -0.905249,-1.001115 -0.504362,-0.859895 z" />
</svg>
