<svg viewBox="0 0 25.4 25.4" version="1.1" id="icon-pickaxe"
  xmlns:xlink="http://www.w3.org/1999/xlink"
  xmlns="http://www.w3.org/2000/svg"
  xmlns:svg="http://www.w3.org/2000/svg">
  <path id="path23" style="stroke:#000000;stroke-width:0.333375;" d="m 19.340141,15.950049 c -0.431964,-0.472974 -3.436049,-3.435712 -3.790548,-3.452581 -0.137341,-0.0065 1.611342,-1.823678 1.815644,-1.88852 0.09724,-0.03086 0.336128,-0.238808 0.418504,-0.155774 0.535463,0.540062 3.125337,5.358001 3.5669,6.811641 0.187695,0.617897 0.181333,0.699711 -0.05441,0.699711 -0.123694,0 -0.238756,-0.134108 -0.426099,-0.339236 z" />
  <use xlink:href="#path23" transform="matrix(-0.0348995,-0.99939083,-0.99939083,0.0348995,26.126592,25.207957)" />
  <path style="stroke:#000000;stroke-width:0.264583;" transform="rotate(45)" d="m 16.82523,-2.0836639 h 2.734992 l -0.06847,10.9111502 c 0.0034,0.2487391 0.09997,2.9105997 0.01456,3.2259867 -0.256865,0.948483 -2.098961,1.167885 -2.39908,-0.07677 -0.04255,-0.176475 -0.08674,-2.8613539 -0.08674,-3.0249719 z" />
  <path style="stroke:#000000;stroke-width:0.264583;" transform="matrix(0.6716301,0.67187276,-0.6716301,0.67187276,0.76524971,0.51538978)" d="m 16.563257,-5.6085362 h 3.105133 a 0.49130196,0.49130196 45 0 1 0.491302,0.4913019 v 3.1858326 a 0.45211073,0.45211073 135 0 1 -0.45211,0.4521107 H 16.55404 a 0.52359264,0.52359264 45 0 1 -0.523593,-0.5235926 v -3.0728427 a 0.53280998,0.53280998 135 0 1 0.53281,-0.5328099 z" />
</svg>
